<?xml version="1.0" encoding="UTF-8" standalone="no"?>
<svg
   xmlns:dc="http://purl.org/dc/elements/1.1/"
   xmlns:cc="http://creativecommons.org/ns#"
   xmlns:rdf="http://www.w3.org/1999/02/22-rdf-syntax-ns#"
   xmlns:svg="http://www.w3.org/2000/svg"
   xmlns="http://www.w3.org/2000/svg"
   xmlns:sodipodi="http://sodipodi.sourceforge.net/DTD/sodipodi-0.dtd"
   xmlns:inkscape="http://www.inkscape.org/namespaces/inkscape"
   viewBox="0 0 121.27192 121.27699"
   width="600"
   height="600"
   version="1.1"
   id="svg9"
   sodipodi:docname="autohome.svg"
   inkscape:version="0.92.3 (2405546, 2018-03-11)">
  <metadata
     id="metadata15">
    <rdf:RDF>
      <cc:Work
         rdf:about="">
        <dc:format>image/svg+xml</dc:format>
        <dc:type
           rdf:resource="http://purl.org/dc/dcmitype/StillImage" />
        <dc:title></dc:title>
      </cc:Work>
    </rdf:RDF>
  </metadata>
  <defs
     id="defs13">
	
	
	
	
	
	
	
	
	
	
	
	
	
	
	
	
	
	
	
	
	
	
	
	
	
	
	
	
	
	
	
	
	
	
	
	
	
	
	
	
	
	
	
	
	
	
	
	
	
	
	
	
	
	
	
	
	
	
	
	
	
	
</defs>
  <sodipodi:namedview
     pagecolor="#ffffff"
     bordercolor="#666666"
     borderopacity="1"
     objecttolerance="10"
     gridtolerance="10"
     guidetolerance="10"
     inkscape:pageopacity="0"
     inkscape:pageshadow="2"
     inkscape:window-width="2400"
     inkscape:window-height="1284"
     id="namedview11"
     showgrid="false"
     inkscape:zoom="0.65186406"
     inkscape:cx="440.76893"
     inkscape:cy="590.49556"
     inkscape:window-x="2391"
     inkscape:window-y="-9"
     inkscape:window-maximized="1"
     inkscape:current-layer="svg9" />
  <g
     id="g6781"
     transform="matrix(0.125,0,0,0.125,-61.499954,190.14577)">
</g>
  <g
     id="g6783"
     transform="matrix(0.125,0,0,0.125,-61.499954,190.14577)">
</g>
  <g
     id="g6785"
     transform="matrix(0.125,0,0,0.125,-61.499954,190.14577)">
</g>
  <g
     id="g6787"
     transform="matrix(0.125,0,0,0.125,-61.499954,190.14577)">
</g>
  <g
     id="g6789"
     transform="matrix(0.125,0,0,0.125,-61.499954,190.14577)">
</g>
  <g
     id="g6791"
     transform="matrix(0.125,0,0,0.125,-61.499954,190.14577)">
</g>
  <g
     id="g6793"
     transform="matrix(0.125,0,0,0.125,-61.499954,190.14577)">
</g>
  <g
     id="g6795"
     transform="matrix(0.125,0,0,0.125,-61.499954,190.14577)">
</g>
  <g
     id="g6797"
     transform="matrix(0.125,0,0,0.125,-61.499954,190.14577)">
</g>
  <g
     id="g6799"
     transform="matrix(0.125,0,0,0.125,-61.499954,190.14577)">
</g>
  <g
     id="g6801"
     transform="matrix(0.125,0,0,0.125,-61.499954,190.14577)">
</g>
  <g
     id="g6803"
     transform="matrix(0.125,0,0,0.125,-61.499954,190.14577)">
</g>
  <g
     id="g6805"
     transform="matrix(0.125,0,0,0.125,-61.499954,190.14577)">
</g>
  <g
     id="g6807"
     transform="matrix(0.125,0,0,0.125,-61.499954,190.14577)">
</g>
  <g
     id="g6809"
     transform="matrix(0.125,0,0,0.125,-61.499954,190.14577)">
</g>
  <g
     id="g8540"
     transform="matrix(0.125,0,0,0.125,120.44685,244.37255)">
</g>
  <g
     id="g8542"
     transform="matrix(0.125,0,0,0.125,120.44685,244.37255)">
</g>
  <g
     id="g8544"
     transform="matrix(0.125,0,0,0.125,120.44685,244.37255)">
</g>
  <g
     id="g8546"
     transform="matrix(0.125,0,0,0.125,120.44685,244.37255)">
</g>
  <g
     id="g8548"
     transform="matrix(0.125,0,0,0.125,120.44685,244.37255)">
</g>
  <g
     id="g8550"
     transform="matrix(0.125,0,0,0.125,120.44685,244.37255)">
</g>
  <g
     id="g8552"
     transform="matrix(0.125,0,0,0.125,120.44685,244.37255)">
</g>
  <g
     id="g8554"
     transform="matrix(0.125,0,0,0.125,120.44685,244.37255)">
</g>
  <g
     id="g8556"
     transform="matrix(0.125,0,0,0.125,120.44685,244.37255)">
</g>
  <g
     id="g8558"
     transform="matrix(0.125,0,0,0.125,120.44685,244.37255)">
</g>
  <g
     id="g8560"
     transform="matrix(0.125,0,0,0.125,120.44685,244.37255)">
</g>
  <g
     id="g8562"
     transform="matrix(0.125,0,0,0.125,120.44685,244.37255)">
</g>
  <g
     id="g8564"
     transform="matrix(0.125,0,0,0.125,120.44685,244.37255)">
</g>
  <g
     id="g8566"
     transform="matrix(0.125,0,0,0.125,120.44685,244.37255)">
</g>
  <g
     id="g8568"
     transform="matrix(0.125,0,0,0.125,120.44685,244.37255)">
</g>
  <g
     id="g9084"
     transform="scale(0.24739186)">
    <g
       transform="matrix(2.1015517,0,0,2.1015517,62.204641,406.41801)"
       id="g8921">
      <path
         inkscape:connector-curvature="0"
         style="fill:#7fffd4;stroke-width:3.88761687"
         id="path2"
         d="m 201.73715,-126.75763 -17.5176,-10.25163 v -36.93235 a 3.8876167,3.8876167 0 0 0 -3.88762,-3.88762 H 149.231 a 3.8876167,3.8876167 0 0 0 -3.88762,3.88762 v 14.12758 l -56.34711,-33.04473 a 3.9109423,3.9109423 0 0 0 -3.934269,0 l -112.740876,66.08948 a 3.8876167,3.8876167 0 0 0 -1.920488,3.36667 v 23.3257 a 3.8876167,3.8876167 0 0 0 5.854756,3.355015 L 87.029135,-161.66066 197.74847,-96.737449 a 3.8487406,3.8487406 0 0 0 2.02154,0.548159 3.8876167,3.8876167 0 0 0 3.88764,-3.88762 v -23.3257 a 3.8876167,3.8876167 0 0 0 -1.9205,-3.35502 z m -48.61853,-43.29639 h 23.32569 v 28.46902 l -23.32569,-13.67274 z m 42.76377,63.18933 -106.88612,-62.65673 a 3.8876167,3.8876167 0 0 0 -3.934269,0 l -106.886149,62.65673 v -14.31032 l 108.853283,-63.81133 108.853255,63.81133 z" />
      <path
         inkscape:connector-curvature="0"
         style="fill:#7fffd4;stroke-width:3.88761687"
         id="path4"
         d="M 190.05098,-95.683897 88.972939,-153.99817 a 4.0586718,4.0586718 0 0 0 -3.887622,0 l -101.078025,58.314273 a 3.8876167,3.8876167 0 0 0 -1.943818,3.382214 v 128.29136 a 3.8876167,3.8876167 0 0 0 3.887622,3.887617 H 188.10718 a 3.8876167,3.8876167 0 0 0 3.88759,-3.887617 v -128.29136 a 3.8876167,3.8876167 0 0 0 -1.94379,-3.382214 z M 184.21955,32.102059 H -10.161282 V -90.046864 l 97.190417,-56.098306 97.190415,56.098306 z" />
    </g>
    <g
       style="fill:#7fffd4"
       transform="matrix(0.21798252,0,0,0.31257018,256.88612,358.4666)"
       id="g7803">
      <g
         style="fill:#7fffd4"
         id="g7747">
	<path
   style="fill:#7fffd4"
   inkscape:connector-curvature="0"
   d="M 79.873,0 H 17.619 C 14.381,0 11.746,2.635 11.746,5.873 V 91.62 c 0,3.238 2.635,5.873 5.873,5.873 h 62.254 c 3.238,0 5.873,-2.635 5.873,-5.873 V 5.873 C 85.746,2.634 83.111,0 79.873,0 Z M 48.746,3.377 c 0.486,0 0.881,0.395 0.881,0.881 0,0.486 -0.395,0.88 -0.881,0.88 -0.486,0 -0.881,-0.395 -0.881,-0.881 0,-0.486 0.395,-0.88 0.881,-0.88 z m 0,90.884 c -0.973,0 -1.762,-0.788 -1.762,-1.762 0,-0.974 0.789,-1.763 1.762,-1.763 0.973,0 1.762,0.789 1.762,1.763 0,0.974 -0.789,1.762 -1.762,1.762 z M 81.048,88.828 H 16.444 V 8.662 h 64.604 z"
   id="path7745" />

</g>
      <g
         style="fill:#7fffd4"
         id="g7749">
</g>
      <g
         style="fill:#7fffd4"
         id="g7751">
</g>
      <g
         style="fill:#7fffd4"
         id="g7753">
</g>
      <g
         style="fill:#7fffd4"
         id="g7755">
</g>
      <g
         style="fill:#7fffd4"
         id="g7757">
</g>
      <g
         style="fill:#7fffd4"
         id="g7759">
</g>
      <g
         style="fill:#7fffd4"
         id="g7761">
</g>
      <g
         style="fill:#7fffd4"
         id="g7763">
</g>
      <g
         style="fill:#7fffd4"
         id="g7765">
</g>
      <g
         style="fill:#7fffd4"
         id="g7767">
</g>
      <g
         style="fill:#7fffd4"
         id="g7769">
</g>
      <g
         style="fill:#7fffd4"
         id="g7771">
</g>
      <g
         style="fill:#7fffd4"
         id="g7773">
</g>
      <g
         style="fill:#7fffd4"
         id="g7775">
</g>
      <g
         style="fill:#7fffd4"
         id="g7777">
</g>
    </g>
    <path
       style="fill:#7fffd4;stroke-width:0.10911017"
       id="path8514"
       d="m 316.90188,348.36195 h -34.69529 c -1.39399,0 -2.53397,-1.13999 -2.53397,-2.53398 v -50.79646 c -8.7e-4,-1.39399 1.13998,-2.53397 2.53397,-2.53397 h 34.69617 c 1.39399,0 2.53397,1.13998 2.53397,2.53397 v 50.79472 c 0,1.39573 -1.14086,2.53572 -2.53485,2.53572 z"
       inkscape:connector-curvature="0" />
    <path
       id="path8516"
       d="m 299.55424,346.77068 c -0.97676,0 -1.7702,-0.79432 -1.7702,-1.7702 0,-0.97588 0.79432,-1.7702 1.7702,-1.7702 0.97588,0 1.7702,0.79432 1.7702,1.7702 0,0.97588 -0.79345,1.7702 -1.7702,1.7702 z m 0,-2.90844 c -0.6276,0 -1.13649,0.50977 -1.13649,1.13649 0,0.62673 0.50976,1.1365 1.13649,1.1365 0.62673,0 1.13649,-0.50977 1.13649,-1.1365 0,-0.62672 -0.50889,-1.13649 -1.13649,-1.13649 z"
       style="fill:#ffffff;stroke-width:0.10911017"
       inkscape:connector-curvature="0" />
    <rect
       id="rect8518"
       height="45.721527"
       width="35.329872"
       style="fill:#ffffff;stroke-width:0.10911017"
       y="295.98209"
       x="281.88974" />
    <g
       transform="matrix(2.4186572,0,0,2.4186572,-230.22714,-51.477014)"
       id="g8990">
      <path
         inkscape:connector-curvature="0"
         style="fill:#7fffd4;stroke-width:0.09366682"
         d="m 202.04431,165.41161 -4.41189,-10.05176 c -0.0779,-0.16907 -0.43883,-0.30498 -0.80657,-0.30498 h -35.1673 c -0.36773,0 -0.72854,0.136 -0.80638,0.30498 l -4.42294,10.07667 h -0.20645 v 0.51414 h 0.0111 c 0.004,0.179 0.23267,0.31116 0.60706,0.31116 h 44.80253 c 0.37457,0 0.6122,-0.13216 0.61679,-0.31116 v -0.53915 z"
         id="path6377" />
      <path
         inkscape:connector-curvature="0"
         style="fill:#7fffd4;stroke-width:0.09366682"
         d="m 201.64351,165.72258 h -44.80252 c -0.46862,0 -0.72545,-0.20372 -0.57559,-0.45204 l 4.58677,-10.44984 c 0.0778,-0.16898 0.43874,-0.30498 0.80647,-0.30498 h 35.16721 c 0.36783,0 0.72864,0.136 0.80648,0.30498 l 4.58677,10.44984 c 0.14986,0.24832 -0.10706,0.45204 -0.57559,0.45204 z"
         id="path6379" />
      <polygon
         style="fill:#ffffff"
         points="321.454,417.91 170.066,417.91 184.788,387.481 306.732,387.481 "
         id="polygon6381"
         transform="matrix(0.09366683,0,0,0.09366683,156.22269,125.81265)" />
      <polygon
         id="polygon6383"
         points="78.34,319.156 76.158,324.774 52.74,324.774 55.223,319.156 "
         style="fill:#ffffff"
         transform="matrix(0.09366683,0,0,0.09366683,156.29688,125.81265)" />
      <polygon
         id="polygon6385"
         points="114.1,319.156 112.384,324.774 88.965,324.774 90.983,319.156 "
         style="fill:#ffffff"
         transform="matrix(0.09366683,0,0,0.09366683,156.29688,125.81265)" />
      <polygon
         id="polygon6387"
         points="141.552,319.156 140.194,324.774 116.775,324.774 118.434,319.156 "
         style="fill:#ffffff"
         transform="matrix(0.09366683,0,0,0.09366683,156.29688,125.81265)" />
      <polygon
         id="polygon6389"
         points="169.003,319.156 168.003,324.774 144.585,324.774 145.886,319.156 "
         style="fill:#ffffff"
         transform="matrix(0.09366683,0,0,0.09366683,156.29688,125.81265)" />
      <polygon
         id="polygon6391"
         points="196.455,319.156 195.813,324.774 172.394,324.774 173.338,319.156 "
         style="fill:#ffffff"
         transform="matrix(0.09366683,0,0,0.09366683,156.29688,125.81265)" />
      <polygon
         id="polygon6393"
         points="234.021,319.156 233.868,324.774 210.449,324.774 210.903,319.156 "
         style="fill:#ffffff"
         transform="matrix(0.09366683,0,0,0.09366683,156.29688,125.81265)" />
      <polygon
         id="polygon6395"
         points="261.473,319.156 261.677,324.774 238.259,324.774 238.355,319.156 "
         style="fill:#ffffff"
         transform="matrix(0.09366683,0,0,0.09366683,156.29688,125.81265)" />
      <polygon
         id="polygon6397"
         points="288.924,319.156 289.487,324.774 266.068,324.774 265.807,319.156 "
         style="fill:#ffffff"
         transform="matrix(0.09366683,0,0,0.09366683,156.29688,125.81265)" />
      <polygon
         id="polygon6399"
         points="316.376,319.156 317.296,324.774 293.878,324.774 293.259,319.156 "
         style="fill:#ffffff"
         transform="matrix(0.09366683,0,0,0.09366683,156.29688,125.81265)" />
      <polygon
         id="polygon6401"
         points="74.752,328.394 71.368,337.106 47.289,337.106 51.139,328.394 "
         style="fill:#ffffff"
         transform="matrix(0.09366683,0,0,0.09366683,156.29688,125.81265)" />
      <polygon
         id="polygon6403"
         points="105.144,328.394 102.362,337.106 78.282,337.106 81.532,328.394 "
         style="fill:#ffffff"
         transform="matrix(0.09366683,0,0,0.09366683,156.29688,125.81265)" />
      <polygon
         id="polygon6405"
         points="135.537,328.394 133.356,337.106 109.276,337.106 111.924,328.394 "
         style="fill:#ffffff"
         transform="matrix(0.09366683,0,0,0.09366683,156.29688,125.81265)" />
      <polygon
         id="polygon6407"
         points="165.929,328.394 164.349,337.106 140.269,337.106 142.316,328.394 "
         style="fill:#ffffff"
         transform="matrix(0.09366683,0,0,0.09366683,156.29688,125.81265)" />
      <polygon
         id="polygon6409"
         points="196.321,328.394 195.343,337.106 171.263,337.106 172.708,328.394 "
         style="fill:#ffffff"
         transform="matrix(0.09366683,0,0,0.09366683,156.29688,125.81265)" />
      <polygon
         id="polygon6411"
         points="226.713,328.394 226.336,337.106 202.256,337.106 203.1,328.394 "
         style="fill:#ffffff"
         transform="matrix(0.09366683,0,0,0.09366683,156.29688,125.81265)" />
      <polygon
         id="polygon6413"
         points="257.105,328.394 257.33,337.106 233.25,337.106 233.492,328.394 "
         style="fill:#ffffff"
         transform="matrix(0.09366683,0,0,0.09366683,156.29688,125.81265)" />
      <polygon
         id="polygon6415"
         points="287.497,328.394 288.323,337.106 264.243,337.106 263.885,328.394 "
         style="fill:#ffffff"
         transform="matrix(0.09366683,0,0,0.09366683,156.29688,125.81265)" />
      <polygon
         id="polygon6417"
         points="317.889,328.394 319.317,337.106 295.237,337.106 294.277,328.394 "
         style="fill:#ffffff"
         transform="matrix(0.09366683,0,0,0.09366683,156.29688,125.81265)" />
      <polygon
         id="polygon6419"
         points="69.881,340.934 66.3,350.155 41.52,350.155 45.596,340.934 "
         style="fill:#ffffff"
         transform="matrix(0.09366683,0,0,0.09366683,156.29688,125.81265)" />
      <polygon
         id="polygon6421"
         points="101.139,340.934 98.194,350.155 73.415,350.155 76.854,340.934 "
         style="fill:#ffffff"
         transform="matrix(0.09366683,0,0,0.09366683,156.29688,125.81265)" />
      <polygon
         id="polygon6423"
         points="132.397,340.934 130.089,350.155 105.309,350.155 108.112,340.934 "
         style="fill:#ffffff"
         transform="matrix(0.09366683,0,0,0.09366683,156.29688,125.81265)" />
      <polygon
         id="polygon6425"
         points="163.655,340.934 161.983,350.155 137.203,350.155 139.37,340.934 "
         style="fill:#ffffff"
         transform="matrix(0.09366683,0,0,0.09366683,156.29688,125.81265)" />
      <polygon
         id="polygon6427"
         points="194.913,340.934 193.877,350.155 169.098,350.155 170.627,340.934 "
         style="fill:#ffffff"
         transform="matrix(0.09366683,0,0,0.09366683,156.29688,125.81265)" />
      <polygon
         id="polygon6429"
         points="226.17,340.934 225.772,350.155 200.992,350.155 201.885,340.934 "
         style="fill:#ffffff"
         transform="matrix(0.09366683,0,0,0.09366683,156.29688,125.81265)" />
      <polygon
         id="polygon6431"
         points="257.428,340.934 257.666,350.155 232.886,350.155 233.143,340.934 "
         style="fill:#ffffff"
         transform="matrix(0.09366683,0,0,0.09366683,156.29688,125.81265)" />
      <polygon
         id="polygon6433"
         points="288.686,340.934 289.56,350.155 264.78,350.155 264.401,340.934 "
         style="fill:#ffffff"
         transform="matrix(0.09366683,0,0,0.09366683,156.29688,125.81265)" />
      <polygon
         id="polygon6435"
         points="319.944,340.934 321.455,350.155 296.675,350.155 295.659,340.934 "
         style="fill:#ffffff"
         transform="matrix(0.09366683,0,0,0.09366683,156.29688,125.81265)" />
      <polygon
         id="polygon6437"
         points="75.85,354.21 72.287,363.985 35.407,363.985 39.728,354.21 "
         style="fill:#ffffff"
         transform="matrix(0.09366683,0,0,0.09366683,156.29688,125.81265)" />
      <polygon
         id="polygon6439"
         points="108.207,354.21 105.322,363.985 78.773,363.985 82.203,354.21 "
         style="fill:#ffffff"
         transform="matrix(0.09366683,0,0,0.09366683,156.29688,125.81265)" />
      <polygon
         id="polygon6441"
         points="140.51,354.21 138.302,363.985 111.753,363.985 114.506,354.21 "
         style="fill:#ffffff"
         transform="matrix(0.09366683,0,0,0.09366683,156.29688,125.81265)" />
      <polygon
         id="polygon6443"
         points="173.979,354.21 172.474,363.985 145.925,363.985 147.976,354.21 "
         style="fill:#ffffff"
         transform="matrix(0.09366683,0,0,0.09366683,156.29688,125.81265)" />
      <polygon
         id="polygon6445"
         points="207.449,354.21 206.646,363.985 180.097,363.985 181.445,354.21 "
         style="fill:#ffffff"
         transform="matrix(0.09366683,0,0,0.09366683,156.29688,125.81265)" />
      <polygon
         id="polygon6447"
         points="240.919,354.21 240.817,363.985 214.268,363.985 214.915,354.21 "
         style="fill:#ffffff"
         transform="matrix(0.09366683,0,0,0.09366683,156.29688,125.81265)" />
      <polygon
         id="polygon6449"
         points="274.388,354.21 274.989,363.985 248.44,363.985 248.385,354.21 "
         style="fill:#ffffff"
         transform="matrix(0.09366683,0,0,0.09366683,156.29688,125.81265)" />
      <polygon
         id="polygon6451"
         points="322.119,354.21 323.72,363.985 283.864,363.985 283.082,354.21 "
         style="fill:#ffffff"
         transform="matrix(0.09366683,0,0,0.09366683,156.29688,125.81265)" />
      <polygon
         id="polygon6453"
         points="59.257,368.288 55.225,378.668 28.916,378.668 33.504,368.288 "
         style="fill:#ffffff"
         transform="matrix(0.09366683,0,0,0.09366683,156.29688,125.81265)" />
      <polygon
         id="polygon6455"
         points="191.841,368.288 190.675,378.668 62.778,378.668 66.651,368.288 "
         style="fill:#ffffff"
         transform="matrix(0.09366683,0,0,0.09366683,156.29688,125.81265)" />
      <polygon
         id="polygon6457"
         points="224.987,368.288 224.538,378.668 198.229,378.668 199.235,368.288 "
         style="fill:#ffffff"
         transform="matrix(0.09366683,0,0,0.09366683,156.29688,125.81265)" />
      <polygon
         id="polygon6459"
         points="258.133,368.288 258.401,378.668 232.092,378.668 232.381,368.288 "
         style="fill:#ffffff"
         transform="matrix(0.09366683,0,0,0.09366683,156.29688,125.81265)" />
      <polygon
         id="polygon6461"
         points="291.279,368.288 292.263,378.668 265.954,378.668 265.527,368.288 "
         style="fill:#ffffff"
         transform="matrix(0.09366683,0,0,0.09366683,156.29688,125.81265)" />
      <polygon
         id="polygon6463"
         points="324.425,368.288 326.126,378.668 299.817,378.668 298.673,368.288 "
         style="fill:#ffffff"
         transform="matrix(0.09366683,0,0,0.09366683,156.29688,125.81265)" />
      <polygon
         id="polygon6465"
         points="353.942,319.156 356.179,328.07 332.583,328.07 330.824,319.156 "
         style="fill:#ffffff"
         transform="matrix(0.09366683,0,0,0.09366683,156.29688,125.81265)" />
      <polygon
         id="polygon6467"
         points="381.393,319.156 384.198,328.07 360.603,328.07 358.276,319.156 "
         style="fill:#ffffff"
         transform="matrix(0.09366683,0,0,0.09366683,156.29688,125.81265)" />
      <polygon
         id="polygon6469"
         points="408.845,319.156 412.218,328.07 388.622,328.07 385.728,319.156 "
         style="fill:#ffffff"
         transform="matrix(0.09366683,0,0,0.09366683,156.29688,125.81265)" />
      <polygon
         id="polygon6471"
         points="436.297,319.156 440.237,328.07 416.642,328.07 413.18,319.156 "
         style="fill:#ffffff"
         transform="matrix(0.09366683,0,0,0.09366683,156.29688,125.81265)" />
      <polygon
         id="polygon6473"
         points="356.746,330.328 359.102,339.715 334.882,339.715 333.029,330.328 "
         style="fill:#ffffff"
         transform="matrix(0.09366683,0,0,0.09366683,156.29688,125.81265)" />
      <polygon
         id="polygon6475"
         points="384.909,330.328 387.863,339.715 363.643,339.715 361.192,330.328 "
         style="fill:#ffffff"
         transform="matrix(0.09366683,0,0,0.09366683,156.29688,125.81265)" />
      <polygon
         id="polygon6477"
         points="413.072,330.328 416.624,339.715 392.404,339.715 389.356,330.328 "
         style="fill:#ffffff"
         transform="matrix(0.09366683,0,0,0.09366683,156.29688,125.81265)" />
      <polygon
         id="polygon6479"
         points="441.235,330.328 445.385,339.715 421.165,339.715 417.519,330.328 "
         style="fill:#ffffff"
         transform="matrix(0.09366683,0,0,0.09366683,156.29688,125.81265)" />
      <polygon
         id="polygon6481"
         points="359.699,342.095 362.183,351.993 337.305,351.993 335.351,342.095 "
         style="fill:#ffffff"
         transform="matrix(0.09366683,0,0,0.09366683,156.29688,125.81265)" />
      <polygon
         id="polygon6483"
         points="388.611,342.095 391.726,351.993 366.848,351.993 364.264,342.095 "
         style="fill:#ffffff"
         transform="matrix(0.09366683,0,0,0.09366683,156.29688,125.81265)" />
      <polygon
         id="polygon6485"
         points="417.524,342.095 421.269,351.993 396.391,351.993 393.177,342.095 "
         style="fill:#ffffff"
         transform="matrix(0.09366683,0,0,0.09366683,156.29688,125.81265)" />
      <polygon
         id="polygon6487"
         points="446.437,342.095 450.813,351.993 425.934,351.993 422.089,342.095 "
         style="fill:#ffffff"
         transform="matrix(0.09366683,0,0,0.09366683,156.29688,125.81265)" />
      <polygon
         id="polygon6489"
         points="362.813,354.504 365.437,364.958 339.863,364.958 337.8,354.504 "
         style="fill:#ffffff"
         transform="matrix(0.09366683,0,0,0.09366683,156.29688,125.81265)" />
      <polygon
         id="polygon6491"
         points="392.516,354.504 395.806,364.958 370.232,364.958 367.503,354.504 "
         style="fill:#ffffff"
         transform="matrix(0.09366683,0,0,0.09366683,156.29688,125.81265)" />
      <polygon
         id="polygon6493"
         points="422.219,354.504 426.175,364.958 400.601,364.958 397.206,354.504 "
         style="fill:#ffffff"
         transform="matrix(0.09366683,0,0,0.09366683,156.29688,125.81265)" />
      <polygon
         id="polygon6495"
         points="451.923,354.504 456.544,364.958 430.97,364.958 426.909,354.504 "
         style="fill:#ffffff"
         transform="matrix(0.09366683,0,0,0.09366683,156.29688,125.81265)" />
      <polygon
         id="polygon6497"
         points="366.103,367.612 368.878,378.668 342.569,378.668 340.387,367.612 "
         style="fill:#ffffff"
         transform="matrix(0.09366683,0,0,0.09366683,156.29688,125.81265)" />
      <polygon
         id="polygon6499"
         points="396.641,367.612 400.12,378.668 373.811,378.668 370.925,367.612 "
         style="fill:#ffffff"
         transform="matrix(0.09366683,0,0,0.09366683,156.29688,125.81265)" />
      <polygon
         id="polygon6501"
         points="427.179,367.612 431.362,378.668 405.053,378.668 401.463,367.612 "
         style="fill:#ffffff"
         transform="matrix(0.09366683,0,0,0.09366683,156.29688,125.81265)" />
      <polygon
         id="polygon6503"
         points="457.717,367.612 462.604,378.668 436.295,378.668 432.001,367.612 "
         style="fill:#ffffff"
         transform="matrix(0.09366683,0,0,0.09366683,156.29688,125.81265)" />
      <path
         id="path6505"
         d="m 196.69314,131.40259 h -34.89361 c -0.46356,0 -0.83945,0.37579 -0.83945,0.83944 v 21.20739 c 0,0.46355 0.3758,0.83934 0.83945,0.83934 h 34.89351 c 0.46356,0 0.83944,-0.37579 0.83944,-0.83934 v -21.20739 c 0,-0.46365 -0.37579,-0.83944 -0.83934,-0.83944 z"
         style="fill:#7fffd4;stroke-width:0.09366682"
         inkscape:connector-curvature="0" />
      <path
         inkscape:connector-curvature="0"
         style="fill:#ffffff;stroke-width:0.09366682"
         d="m 194.54666,153.34029 h -30.74904 c -0.0965,0 -0.17469,0.0781 -0.17469,0.1746 v 1.30712 c 0,0.0965 0.0782,0.1746 0.17469,0.1746 h 30.74895 c 0.0965,0 0.17468,-0.0781 0.17468,-0.1746 v -1.30712 c 0,-0.0965 -0.0782,-0.1746 -0.17459,-0.1746 z"
         id="path6513" />
      <rect
         id="rect8852"
         height="16.377459"
         width="32.793316"
         style="fill:#ffffff;stroke-width:0.09366682"
         y="134.29701"
         x="162.91978" />
    </g>
  </g>
</svg>
